<svg xmlns="http://www.w3.org/2000/svg" viewBox="0 0 40 40">
    <g fill="#77a22e">
        <circle cx="20" cy="20" r="10" fill="white"/>
        <rect x="19" y="0" width="2" height="15" rx="1" />
        <rect x="19" y="0" width="2" height="15" rx="1" transform="rotate(22.5 20 20)" />
        <rect x="19" y="0" width="2" height="15" rx="1" transform="rotate(45 20 20)" />
        <rect x="19" y="0" width="2" height="15" rx="1" transform="rotate(67.5 20 20)" />
        <rect x="19" y="0" width="2" height="15" rx="1" transform="rotate(90 20 20)" />
        <rect x="19" y="0" width="2" height="15" rx="1" transform="rotate(112.5 20 20)" />
        <rect x="19" y="0" width="2" height="15" rx="1" transform="rotate(135 20 20)" />
        <rect x="19" y="0" width="2" height="15" rx="1" transform="rotate(157.5 20 20)" />
        <rect x="19" y="0" width="2" height="15" rx="1" transform="rotate(180 20 20)" />
        <rect x="19" y="0" width="2" height="15" rx="1" transform="rotate(202.5 20 20)" />
        <rect x="19" y="0" width="2" height="15" rx="1" transform="rotate(225 20 20)" />
        <rect x="19" y="0" width="2" height="15" rx="1" transform="rotate(247.5 20 20)" />
        <rect x="19" y="0" width="2" height="15" rx="1" transform="rotate(270 20 20)" />
        <rect x="19" y="0" width="2" height="15" rx="1" transform="rotate(292.5 20 20)" />
        <rect x="19" y="0" width="2" height="15" rx="1" transform="rotate(315 20 20)" />
        <rect x="19" y="0" width="2" height="15" rx="1" transform="rotate(337.5 20 20)" />
    </g>
</svg>