<svg width="4" height="18" viewBox="0 0 4 18" fill="none" xmlns="http://www.w3.org/2000/svg">
<path d="M1.99934 9.93156C2.51243 9.93156 2.92837 9.51562 2.92837 9.00253C2.92837 8.48944 2.51243 8.0735 1.99934 8.0735C1.48625 8.0735 1.07031 8.48944 1.07031 9.00253C1.07031 9.51562 1.48625 9.93156 1.99934 9.93156Z" stroke="#98A2B3" stroke-width="1.85805" stroke-linecap="round" stroke-linejoin="round"/>
<path d="M1.99934 3.42837C2.51243 3.42837 2.92837 3.01243 2.92837 2.49934C2.92837 1.98625 2.51243 1.57031 1.99934 1.57031C1.48625 1.57031 1.07031 1.98625 1.07031 2.49934C1.07031 3.01243 1.48625 3.42837 1.99934 3.42837Z" stroke="#98A2B3" stroke-width="1.85805" stroke-linecap="round" stroke-linejoin="round"/>
<path d="M1.99934 16.4347C2.51243 16.4347 2.92837 16.0188 2.92837 15.5057C2.92837 14.9926 2.51243 14.5767 1.99934 14.5767C1.48625 14.5767 1.07031 14.9926 1.07031 15.5057C1.07031 16.0188 1.48625 16.4347 1.99934 16.4347Z" stroke="#98A2B3" stroke-width="1.85805" stroke-linecap="round" stroke-linejoin="round"/>
</svg>
