<svg width="40" height="40" viewBox="0 0 40 40" fill="none" xmlns="http://www.w3.org/2000/svg">
<path d="M25.6583 36.5C23.2022 36.6134 20.7437 36.669 18.285 36.6667C15.8263 36.6684 13.3678 36.6128 10.9117 36.5C8.115 36.3733 5.81833 34.1917 5.445 31.4083C5.2 29.5917 5 27.73 5 25.8333C5 23.9367 5.2 22.075 5.445 20.2583C5.81833 17.475 8.115 15.2933 10.9117 15.165C13.2633 15.0567 15.6533 15 18.2833 15C20.9133 15 23.305 15.0567 25.6567 15.1667C27.4233 15.2467 28.99 16.1467 29.9983 17.5" stroke="black" stroke-width="3" stroke-linecap="round" stroke-linejoin="round"/>
<path d="M28.332 23.298C28.3373 22.4189 28.6914 21.5779 29.3164 20.9598C29.9414 20.3416 30.7863 19.9969 31.6654 20.0013C33.507 20.0013 34.9987 21.478 34.9987 23.298C34.9987 23.9546 34.8054 24.5646 34.4704 25.0796C33.4737 26.6113 31.6654 28.0713 31.6654 29.8913V30.7163M31.6654 35.0013H31.6854M10.832 13.3346V9.16797C10.832 7.17884 11.6222 5.27119 13.0287 3.86467C14.4353 2.45815 16.3429 1.66797 18.332 1.66797C20.3212 1.66797 22.2288 2.45815 23.6353 3.86467C25.0419 5.27119 25.832 7.17884 25.832 9.16797V13.3346M19.9987 24.1513V24.168M13.332 24.1513V24.168" stroke="black" stroke-width="3" stroke-linecap="round" stroke-linejoin="round"/>
</svg>
